<?xml version="1.0" encoding="UTF-8"?>
<svg width="100" height="100" viewBox="0 0 100 100" xmlns="http://www.w3.org/2000/svg">
    <path d="M50 5c-1.4 0-2.5 1.1-2.5 2.5v5.8c-8.1 1.3-15.2 4.9-20.9 10.6C20.9 29.7 17.3 36.8 16 45h-5.8c-1.4 0-2.5 1.1-2.5 2.5s1.1 2.5 2.5 2.5H16c1.3 8.1 4.9 15.2 10.6 20.9 5.7 5.7 12.8 9.3 20.9 10.6v5.8c0 1.4 1.1 2.5 2.5 2.5s2.5-1.1 2.5-2.5v-5.8c8.1-1.3 15.2-4.9 20.9-10.6 5.7-5.7 9.3-12.8 10.6-20.9h5.8c1.4 0 2.5-1.1 2.5-2.5s-1.1-2.5-2.5-2.5h-5.8c-1.3-8.1-4.9-15.2-10.6-20.9C67.7 18.2 60.6 14.6 52.5 13.3V7.5c0-1.4-1.1-2.5-2.5-2.5zm0 15c16.6 0 30 13.4 30 30s-13.4 30-30 30-30-13.4-30-30 13.4-30 30-30z"/>
    <path d="M50 25c-13.8 0-25 11.2-25 25s11.2 25 25 25 25-11.2 25-25-11.2-25-25-25zm0 5c11 0 20 9 20 20s-9 20-20 20-20-9-20-20 9-20 20-20z"/>
    <path d="M47.5 35v10h-10v5h10v10h5V50h10v-5h-10V35z"/>
</svg> 